# Blender v2.91.2 OBJ File: ''
# www.blender.org
mtllib Stone.mtl
o Stone
v 0.319167 -0.205371 -0.252973
v 0.089044 -0.214483 -0.368265
v 0.154552 -0.007699 -0.435935
v 0.441312 -0.007699 -0.350328
v 0.359159 -0.204819 -0.066101
v 0.489840 -0.028464 -0.217392
v 0.429503 -0.097203 -0.080692
v 0.285641 -0.215392 0.156537
v 0.352682 -0.007699 0.079763
v 0.292371 -0.007699 0.202558
v 0.055763 -0.210455 0.311578
v 0.112478 -0.007699 0.308115
v -0.468358 -0.213709 0.266669
v -0.211767 -0.213562 0.361741
v -0.282974 -0.100630 0.372047
v -0.461786 -0.100820 0.296500
v -0.573642 -0.214575 0.068991
v -0.574564 -0.102820 0.118215
v -0.231502 -0.217753 -0.332669
v -0.472726 -0.212083 -0.154603
v -0.342225 -0.007699 -0.316305
v -0.231197 -0.007699 -0.394148
v 0.289583 0.148223 0.033882
v 0.183496 0.131254 0.231876
v 0.123316 0.280149 0.111848
v -0.428409 0.006839 0.200606
v -0.297518 0.014205 0.315833
v -0.167759 0.154492 0.223582
v -0.088189 0.081778 0.321060
v -0.032598 0.229014 0.198623
v -0.072268 0.288243 0.074203
v 0.255526 0.262942 -0.074026
v 0.196327 0.259939 -0.183625
v -0.032841 0.273849 -0.148035
v 0.370537 0.197101 -0.150405
v 0.262584 0.139691 -0.390948
v -0.092556 0.138314 -0.337778
vt 0.136842 0.606978
vt 0.136842 0.735110
vt 0.025360 0.718345
vt 0.017448 0.569508
vt 0.788710 0.017695
vt 0.788710 0.113137
vt 0.668187 0.147854
vt 0.670115 0.077532
vt 0.724493 0.017476
vt 0.760524 0.535921
vt 0.760524 0.652278
vt 0.702103 0.674745
vt 0.657296 0.586652
vt 0.656423 0.518326
vt 0.278625 0.663985
vt 0.278625 0.802485
vt 0.173181 0.790656
vt 0.176101 0.686555
vt 0.942324 0.709697
vt 0.942324 0.846380
vt 0.883452 0.814880
vt 0.884627 0.717941
vt 0.916526 0.612901
vt 0.976223 0.518326
vt 0.976223 0.625025
vt 0.729009 0.249064
vt 0.729009 0.398874
vt 0.621924 0.300401
vt 0.621081 0.232676
vt 0.321696 0.580801
vt 0.320009 0.419678
vt 0.429124 0.423137
vt 0.429124 0.616978
vt 0.881630 0.518326
vt 0.881630 0.630828
vt 0.798805 0.597629
vt 0.795421 0.529426
vt 0.106877 0.770061
vt 0.106877 0.883024
vt 0.017448 0.838193
vt 0.586185 0.483374
vt 0.503105 0.363902
vt 0.526292 0.243581
vt 0.586185 0.232676
vt 0.883858 0.167574
vt 0.823606 0.104633
vt 0.883858 0.017476
vt 0.336430 0.197725
vt 0.320009 0.089270
vt 0.434838 0.017476
vt 0.479409 0.067269
vt 0.441249 0.197725
vt 0.574525 0.855978
vt 0.503105 0.861904
vt 0.523783 0.758511
vt 0.574525 0.720688
vt 0.955844 0.982524
vt 0.895115 0.966681
vt 0.883452 0.881331
vt 0.955844 0.886491
vt 0.918754 0.084676
vt 0.982552 0.017476
vt 0.982552 0.117062
vt 0.929654 0.232676
vt 0.929654 0.331837
vt 0.885631 0.387491
vt 0.873518 0.277617
vt 0.503105 0.600484
vt 0.558783 0.518326
vt 0.621527 0.586202
vt 0.620149 0.685736
vt 0.510946 0.685736
vt 0.368787 0.384726
vt 0.320009 0.281418
vt 0.358666 0.232676
vt 0.468209 0.270549
vt 0.468209 0.383537
vt 0.801467 0.232676
vt 0.838622 0.299397
vt 0.838622 0.413663
vt 0.763905 0.329061
vt 0.666021 0.709697
vt 0.739891 0.727971
vt 0.739891 0.862660
vt 0.656423 0.770943
vt 0.017448 0.534557
vt 0.019833 0.402794
vt 0.121300 0.383914
vt 0.162786 0.459550
vt 0.099012 0.534557
vt 0.774787 0.801060
vt 0.848556 0.709697
vt 0.848556 0.859205
vt 0.450714 0.651930
vt 0.450714 0.783118
vt 0.380523 0.781358
vt 0.320009 0.681496
vt 0.197682 0.563262
vt 0.200048 0.383914
vt 0.278625 0.435226
vt 0.278625 0.629034
vt 0.320009 0.916498
vt 0.354933 0.818070
vt 0.400039 0.848062
vt 0.417599 0.916498
vt 0.165975 0.017476
vt 0.267252 0.039053
vt 0.285113 0.098258
vt 0.285113 0.348962
vt 0.185675 0.340445
vt 0.051832 0.276226
vt 0.017448 0.176667
vt 0.061778 0.072786
vt 0.173181 0.887312
vt 0.244067 0.837436
vt 0.244067 0.941637
vt 0.633291 0.196841
vt 0.514305 0.181180
vt 0.518857 0.065256
vt 0.633291 0.017476
vn 0.3247 -0.4825 -0.8135
vn 0.7513 -0.6285 -0.2013
vn 0.8902 -0.2373 0.3888
vn 0.5276 -0.1679 0.8328
vn -0.3521 -0.2606 0.8990
vn -0.8626 -0.2099 0.4603
vn -0.5730 -0.2410 -0.7833
vn -0.1033 -0.2795 -0.9546
vn 0.7713 0.4737 0.4251
vn 0.6769 0.6080 0.4148
vn -0.8838 0.2143 -0.4158
vn -0.4641 0.7447 0.4796
vn 0.1503 0.0369 0.9880
vn 0.1502 0.0369 0.9880
vn -0.2005 0.5588 0.8047
vn -0.4545 0.5286 0.7169
vn -0.0480 0.8959 0.4418
vn -0.2979 0.7416 0.6011
vn 0.1797 0.5463 0.8181
vn 0.0519 0.9971 -0.0554
vn 0.6653 0.6067 0.4350
vn 0.3753 0.8667 -0.3287
vn 0.8513 0.3137 0.4205
vn 0.2851 0.0825 -0.9549
vn 0.7166 0.5980 -0.3589
vn -0.1167 0.4105 -0.9044
vn -0.8081 0.2985 0.5078
vn -0.5710 0.8164 -0.0868
vn -0.5710 0.8163 -0.0868
vn 0.4948 0.2098 0.8433
vn -0.0642 0.8385 -0.5412
usemtl Stone
s 1
f 1/1/1 2/2/1 3/3/1 4/4/1
f 5/5/2 1/6/2 4/7/2 6/8/2 7/9/2
f 8/10/3 5/11/3 7/12/3 9/13/3 10/14/3
f 11/15/4 8/16/4 10/17/4 12/18/4
f 13/19/5 14/20/5 15/21/5 16/22/5
f 17/23/6 13/24/6 18/25/6
f 19/26/7 20/27/7 21/28/7 22/29/7
f 2/30/8 19/31/8 22/32/8 3/33/8
f 23/34/9 24/35/9 10/36/9 9/37/9
f 23/38/10 25/39/10 24/40/10
f 21/41/11 20/42/11 17/43/11 18/44/11
f 26/45/12 27/46/12 28/47/12
f 12/48/13 29/49/13 15/50/13 14/51/13 11/52/14
f 29/53/15 28/54/15 27/55/15 15/56/15
f 15/57/16 27/58/16 26/59/16 16/60/16
f 30/61/17 25/62/17 31/63/17
f 29/64/18 30/65/18 31/66/18 28/67/18
f 24/68/19 25/69/19 30/70/19 29/71/19 12/72/19
f 25/73/20 32/74/20 33/75/20 34/76/20 31/77/20
f 35/78/21 32/79/21 25/80/21 23/81/21
f 32/82/22 35/83/22 36/84/22 33/85/22
f 6/86/23 35/87/23 23/88/23 9/89/23 7/90/23
f 36/91/24 4/92/24 3/93/24
f 35/94/25 6/95/25 4/96/25 36/97/25
f 37/98/26 36/99/26 3/100/26 22/101/26
f 18/102/27 13/103/27 16/104/27 26/105/27
f 37/106/28 22/107/28 21/108/28 18/109/29 26/110/28 28/111/28 31/112/29 34/113/28
f 24/114/30 12/115/30 10/116/30
f 37/117/31 34/118/31 33/119/31 36/120/31
