# Blender v2.91.2 OBJ File: ''
# www.blender.org
mtllib EnvBranch_1.mtl
o EnvBranch_1
v 0.044353 -0.063739 1.000520
v 0.011945 -0.015627 1.011449
v -0.073649 -0.039984 0.382215
v -0.110830 0.003766 0.382516
v 0.093169 -0.023255 0.992698
v 0.052096 0.027981 0.998106
v -0.029985 -0.002853 0.378861
v -0.067166 0.040897 0.379161
v -0.092196 0.025218 -0.065287
v -0.061770 -0.011806 -0.053026
v -0.028027 0.020981 -0.037753
v -0.058453 0.058005 -0.050015
v -0.075722 0.040306 -0.331495
v -0.050005 0.012005 -0.337472
v -0.021765 0.038302 -0.340485
v -0.047484 0.066604 -0.334508
v -0.074705 0.057311 -0.644132
v -0.056843 0.037482 -0.642732
v -0.037246 0.055361 -0.639502
v -0.055106 0.075191 -0.640901
v -0.008794 0.006886 -1.137309
v -0.061693 0.025713 0.013590
v -0.049597 0.002735 0.030165
v -0.034887 0.023231 0.047842
v -0.046982 0.046209 0.031267
v 0.163938 0.020343 -0.248505
v 0.171059 0.009013 -0.241435
v 0.179419 0.019043 -0.233780
v 0.172298 0.030373 -0.240850
v 0.518404 0.005911 -0.507315
v -0.099190 0.000004 0.397167
v -0.084551 -0.023457 0.383591
v -0.066226 -0.003522 0.368900
v -0.080865 0.019939 0.382477
v -0.276653 -0.013122 0.185798
v -0.270580 -0.024580 0.177995
v -0.262651 -0.014720 0.169688
v -0.268724 -0.003262 0.177492
v -0.551545 -0.003187 0.000135
v -0.275489 -0.026142 0.183857
vt 0.336912 0.003442
vt 0.401008 0.000000
vt 0.401009 0.723432
vt 0.339215 0.714248
vt 0.525488 0.506329
vt 0.463492 0.498510
vt 0.473375 0.013841
vt 0.525488 0.000000
vt 0.077345 0.008614
vt 0.139272 0.000000
vt 0.139272 0.711435
vt 0.067670 0.715397
vt 0.271148 0.711506
vt 0.271148 0.785743
vt 0.205662 0.777172
vt 0.201724 0.710815
vt 0.271261 0.710815
vt 0.208896 0.706881
vt 0.201724 0.000067
vt 0.271261 0.000000
vt 0.274648 0.004442
vt 0.336912 0.000000
vt 0.336912 0.723431
vt 0.271261 0.715862
vt 0.587477 0.356873
vt 0.639425 0.342244
vt 0.639425 0.663661
vt 0.597644 0.658142
vt 0.401009 0.000000
vt 0.463492 0.000279
vt 0.463492 0.506612
vt 0.411477 0.492232
vt 0.139272 0.002006
vt 0.201724 0.000000
vt 0.199725 0.470868
vt 0.148101 0.486679
vt 0.525488 0.007812
vt 0.587477 0.000000
vt 0.587477 0.492346
vt 0.535352 0.478592
vt 0.067670 0.903780
vt 0.026341 0.912213
vt 0.000000 0.559959
vt 0.029081 0.560356
vt 0.691043 0.664619
vt 0.639425 0.648775
vt 0.649228 0.347492
vt 0.691043 0.342244
vt 0.201724 0.813105
vt 0.159911 0.807862
vt 0.639507 0.342244
vt 0.587477 0.327943
vt 0.597757 0.005744
vt 0.639507 0.000000
vt 0.719948 0.910096
vt 0.691043 0.906761
vt 0.719948 0.342244
vt 0.819350 0.688231
vt 0.777519 0.683107
vt 0.790385 0.344949
vt 0.819350 0.342244
vt 0.463492 0.511472
vt 0.505322 0.506329
vt 0.505322 0.852079
vt 0.476334 0.849631
vt 0.567321 0.845660
vt 0.525488 0.840550
vt 0.538334 0.494819
vt 0.567321 0.492346
vt 0.777519 0.907556
vt 0.748735 0.903238
vt 0.777519 0.342244
vt 0.719948 0.346543
vt 0.748735 0.342244
vt 0.748735 0.910096
vt 0.067670 0.000000
vt 0.918307 0.738543
vt 0.885351 0.732169
vt 0.901888 0.342244
vt 0.918307 0.343599
vt 0.521655 1.000000
vt 0.505322 0.997788
vt 0.521655 0.506329
vt 0.430525 0.512924
vt 0.463492 0.506612
vt 0.463492 0.905982
vt 0.447072 0.907315
vt 0.852356 0.742909
vt 0.819350 0.736814
vt 0.835932 0.342244
vt 0.852356 0.343539
vt 0.852356 0.348402
vt 0.885351 0.342244
vt 0.885351 0.737007
vt 0.868928 0.738326
vt 0.571137 0.494506
vt 0.587477 0.492346
vt 0.587477 0.985965
vt 0.934648 0.837776
vt 0.918307 0.835624
vt 0.934648 0.342244
vt 0.934648 0.344447
vt 0.950982 0.342244
vt 0.950982 0.837776
vt 0.739821 0.312879
vt 0.706297 0.313264
vt 0.723460 0.001984
vt 0.739821 0.000000
vt 0.950982 0.344141
vt 0.967352 0.342244
vt 0.967352 0.720465
vt 0.639507 0.000000
vt 0.673030 0.000370
vt 0.673030 0.316319
vt 0.656669 0.314344
vt 0.706297 0.315940
vt 0.673030 0.312346
vt 0.682178 0.000679
vt 0.706297 0.000000
vt 0.739821 0.003614
vt 0.773164 0.000000
vt 0.773164 0.314847
vt 0.756693 0.314911
vt 0.424944 0.884834
vt 0.401009 0.880879
vt 0.424944 0.506612
vt 0.983720 0.344842
vt 1.000000 0.342244
vt 1.000000 0.718951
vt 0.983720 0.718257
vt 0.967352 0.716349
vt 0.983720 0.342244
vn -0.7826 -0.6088 0.1300
vn -0.6712 0.7411 0.0117
vn 0.7611 0.6350 -0.1325
vn 0.2255 0.0066 0.9742
vn 0.6249 -0.7662 -0.1498
vn -0.6705 0.7268 0.1489
vn -0.6897 0.7241 -0.0032
vn -0.7608 -0.6460 -0.0626
vn 0.7632 0.6449 0.0408
vn 0.6728 -0.7390 -0.0342
vn -0.7426 -0.6686 -0.0390
vn -0.7421 -0.6694 -0.0348
vn -0.7421 -0.6694 -0.0349
vn -0.7516 -0.6541 -0.0848
vn 0.7550 0.6538 0.0510
vn 0.6927 -0.7206 -0.0292
vn 0.7437 0.6682 -0.0226
vn 0.7413 0.6712 0.0001
vn 0.6766 -0.7323 -0.0765
vn -0.6781 0.7340 0.0376
vn 0.6599 -0.7432 0.1101
vn -0.6502 0.7421 -0.1628
vn -0.7416 -0.6701 -0.0306
vn -0.5776 -0.6572 -0.4842
vn 0.4862 0.6617 0.5708
vn 0.6080 0.6524 0.4525
vn 0.5285 -0.7419 0.4127
vn -0.4979 0.7449 -0.4442
vn 0.4024 -0.7433 0.5344
vn -0.3769 0.7397 -0.5575
vn -0.4604 -0.6599 -0.5938
vn -0.5630 -0.6480 0.5130
vn 0.4032 0.6514 -0.6427
vn 0.5232 0.6487 -0.5526
vn 0.4399 -0.8045 -0.3991
vn -0.5203 0.7596 0.3902
vn 0.2405 -0.8505 -0.4677
vn -0.3500 0.7520 0.5585
vn -0.4400 -0.6530 0.6165
usemtl EnvBranch_1
s 1
f 1/1/1 2/2/1 4/3/1 3/4/1
f 4/5/2 8/6/2 12/7/2 9/8/2
f 7/9/3 8/10/3 6/11/3 5/12/3
f 5/13/4 6/14/4 2/15/4 1/16/4
f 3/17/5 7/18/5 5/19/5 1/20/5
f 8/21/6 4/22/6 2/23/6 6/24/6
f 9/25/7 12/26/7 16/27/7 13/28/7
f 3/29/8 4/30/8 9/31/8 10/32/8
f 8/33/9 7/34/9 11/35/9 12/36/9
f 7/37/10 3/38/10 10/39/10 11/40/10
f 14/41/11 13/42/11 17/43/12 18/44/13
f 10/45/14 9/46/14 13/47/14 14/48/14
f 12/36/15 11/35/15 15/49/15 16/50/15
f 11/51/16 10/52/16 14/53/16 15/54/16
f 20/55/17 19/56/17 21/57/17
f 16/58/18 15/59/18 19/60/18 20/61/18
f 15/62/19 14/63/19 18/64/19 19/65/19
f 13/66/20 16/67/20 20/68/20 17/69/20
f 19/70/21 18/71/21 21/72/21
f 17/73/22 20/74/22 21/75/22
f 18/44/13 17/43/12 21/76/23
f 23/77/24 22/78/24 26/79/24 27/80/24
f 29/81/25 28/82/25 30/83/25
f 25/84/26 24/85/26 28/86/26 29/87/26
f 24/88/27 23/89/27 27/90/27 28/91/27
f 22/92/28 25/93/28 29/94/28 26/95/28
f 28/96/29 27/97/29 30/98/29
f 26/99/30 29/100/30 30/101/30
f 27/102/31 26/103/31 30/104/31
f 32/105/32 31/106/32 35/107/32 36/108/32
f 38/109/33 37/110/33 39/111/33
f 34/112/34 33/113/34 37/114/34 38/115/34
f 33/116/35 32/117/35 40/118/35 37/119/35
f 31/120/36 34/121/36 38/122/36 35/123/36
f 37/124/37 40/125/37 39/126/37
f 35/127/38 38/128/38 39/129/38
f 36/130/39 35/131/39 39/132/39
